<svg xmlns="http://www.w3.org/2000/svg" width="752" height="285" viewBox="-0.5 -0.5 752 285">
  <style>path { stroke-miterlimit:10; }</style>
  <path class="none-stroke" d="M350 128.5h400v41H350z" />
  <path class="none-stroke" d="M128 0h379v48H128z" />
  <path fill="none" stroke="#006eaf"  d="m440.75 250 .04-25.2q.01-10 10.01-10H540q10 0 10-10v-21.18" />
  <path fill="#006eaf" stroke="#006eaf"  d="m550 170.62 6.5 13h-13Z" />
  <path fill="none" stroke="#008200" stroke-dasharray="3 3"  d="m232.25 250 .04-25.2q.01-10-9.99-10h-65.2q-10 0-10-10l-.01-19.69" />
  <path fill="#008200" stroke="#008200"  d="m147.08 172.11 6.51 13-13 .01Z" />
  <path class="none-stroke" d="M128 250h417v33H128z" />
  <path class="none-stroke" d="M0 125.5h309v44H0z" />
  <g text-anchor="middle">
    <text x="549.5" y="155.5" >AbstractNamedValueMethodArgumenResolver</text>
    <text x="317" y="21">&lt;&lt;interface&gt;&gt;</text>
    <text x="317" y="40">HandlerMethodArgumentResolver</text>
    <text x="336" y="273" >RequestParamMethodArgumentResolver</text>
    <text x="154" y="144.5">&lt;&lt;interface&gt;&gt;</text>
    <text x="154" y="163.5">UriComponentsContributor</text>
  </g>
  <path fill="none" stroke="#008200" stroke-dasharray="3 3"  d="M550 128.5V98.3q0-10-10-10H327.5q-10 0-10-10V62.12" />
  <path fill="#008200" stroke="#008200"  d="m317.5 49.12 6.5 13h-13Z" />
</svg>
