<svg height="285px" version="1.1" viewBox="-0.5 -0.5 752 285" width="752px" xmlns="http://www.w3.org/2000/svg" xmlns:xlink="http://www.w3.org/1999/xlink"><defs><style>g { fill: gray; text-anchor: middle; }</style></defs><rect class="none-stroke" height="41" width="400" x="350" y="128.5"/><rect class="none-stroke" height="48" width="379" x="128" y="0"/><path d="M 440.75 250 L 440.79 224.8 Q 440.8 214.8 450.8 214.8 L 540 214.8 Q 550 214.8 550 204.8 L 550 183.62" fill="none" stroke="#006eaf" stroke-miterlimit="10"/><path d="M 550 170.62 L 556.5 183.62 L 543.5 183.62 Z" fill="#006eaf" stroke="#006eaf" stroke-miterlimit="10"/><path d="M 232.25 250 L 232.29 224.8 Q 232.3 214.8 222.3 214.8 L 157.1 214.8 Q 147.1 214.8 147.1 204.8 L 147.09 185.11" fill="none" stroke="#008200" stroke-dasharray="3 3" stroke-miterlimit="10"/><path d="M 147.08 172.11 L 153.59 185.11 L 140.59 185.12 Z" fill="#008200" stroke="#008200" stroke-miterlimit="10"/><rect class="none-stroke" height="33" width="417" x="128" y="250"/><rect class="none-stroke" height="44" width="309" x="0" y="125.5"/><g><text x="549.5" y="154.5"> AbstractNamedValueMethodArgumenResolver </text><text x="317" y="21"> &lt;&lt;interface&gt;&gt; </text><text x="317" y="38"> HandlerMethodArgumentResolver </text><text x="336" y="272"> RequestParamMethodArgumentResolver </text><text x="154" y="144.5"> &lt;&lt;interface&gt;&gt; </text><text x="154" y="161.5"> UriComponentsContributor </text></g><path d="M 550 128.5 L 550 98.3 Q 550 88.3 540 88.3 L 327.5 88.3 Q 317.5 88.3 317.5 78.3 L 317.5 62.12" fill="none" stroke="#008200" stroke-dasharray="3 3" stroke-miterlimit="10"/><path d="M 317.5 49.12 L 324 62.12 L 311 62.12 Z" fill="#008200" stroke="#008200" stroke-miterlimit="10"/></svg>
